<?xml version="1.0" encoding="UTF-8"?>
<svg width="512px" height="512px" viewBox="0 0 512 512" version="1.1" xmlns="http://www.w3.org/2000/svg" xmlns:xlink="http://www.w3.org/1999/xlink">
    <!-- Generator: Sketch 47 (45396) - http://www.bohemiancoding.com/sketch -->
    <title>Home_Recipes_Icon</title>
    <desc>Created with Sketch.</desc>
    <defs>
        <linearGradient x1="0%" y1="0%" x2="100%" y2="100%" id="linearGradient-1">
            <stop stop-color="#7EA154" offset="0%"></stop>
            <stop stop-color="#5F9A50" offset="100%"></stop>
        </linearGradient>
    </defs>
    <g id="Icons-Copy" stroke="none" stroke-width="1" fill="none" fill-rule="evenodd">
        <g id="Home_Recipes_Icon">
            <circle id="Oval" fill="url(#linearGradient-1)" cx="256" cy="256" r="256"></circle>
            <g id="Group" transform="translate(94.000000, 92.000000)" stroke-width="5" stroke="#FFFFFF">
                <g id="Page-1">
                    <path d="M272.869565,320 L81.1304348,320 C53.0086957,320 30,296.96 30,268.8 L30,51.2 C30,23.04 53.0086957,0 81.1304348,0 L272.869565,0 C300.991304,0 324,23.04 324,51.2 L324,268.8 C324,296.96 300.991304,320 272.869565,320 Z" id="Stroke-1"></path>
                    <path d="M119.380007,193.728751 C128.735691,184.37097 138.133958,175.051523 147.421507,165.625592 C149.836014,163.180728 152.540092,161.881628 155.934029,162.354415 C160.528832,162.993317 164.144206,161.536621 167.176179,157.984327 C169.514036,155.241308 172.264956,152.847556 174.802956,150.266393 C179.082638,145.913343 180.820062,140.665829 179.367951,134.74534 C175.910138,120.642648 179.755464,108.963523 190.103352,98.9498028 C201.00909,88.3994049 211.582673,77.504 222.339367,66.8045249 C226.921394,62.2427663 233.973289,63.4226049 236.396313,69.0619779 C237.80584,72.345933 237.03933,75.8939675 234.203242,78.7392101 C224.924209,88.0501386 215.623885,97.3397704 206.327819,106.637921 C205.829588,107.136264 205.310064,107.61757 204.837383,108.14147 C203.031825,110.126325 202.959433,112.566929 204.650013,114.296223 C206.336336,116.025518 208.848786,116.034036 210.799129,114.245111 C211.970186,113.171756 213.056076,112.013214 214.180291,110.888747 C222.909991,102.15283 231.643949,93.4169135 240.382166,84.6852559 C242.91165,82.1552049 245.913815,81.2905578 249.346077,82.427803 C252.578196,83.5011579 254.426337,85.8565758 254.924569,89.1831244 C255.375958,92.1944814 254.243226,94.6734203 252.105514,96.8073522 C242.728539,106.143837 233.381372,115.514396 224.025689,124.872177 C223.527457,125.37478 222.999417,125.847568 222.548028,126.388504 C220.95539,128.271135 221.032041,130.728777 222.697071,132.347328 C224.357844,133.96162 226.776609,133.96162 228.663076,132.326031 C229.191116,131.866022 229.668056,131.337863 230.170546,130.83952 C239.402736,121.60526 248.62641,112.362481 257.867116,103.136739 C261.865745,99.1414734 267.014139,98.8390599 270.544344,102.357279 C274.070291,105.875498 273.780721,111.042084 269.794867,115.03309 C258.510133,126.333133 247.289275,137.697066 235.902339,148.890625 C226.989529,157.652098 216.224318,160.748642 204.053839,157.945993 C196.725149,156.255033 190.69101,157.801175 185.568167,163.304249 C182.987582,166.081342 180.274988,168.743433 177.524068,171.354411 C175.403389,173.369081 174.138647,175.745796 174.483577,178.642151 C175.147886,184.230412 172.895197,188.225677 168.926378,192.118719 C150.789894,209.914263 132.938722,227.995183 114.942765,245.939804 C109.245039,251.62603 100.651607,252.597161 94.0425853,248.461337 C87.382463,244.295697 84.2866133,236.283869 86.956624,228.936498 C87.9147618,226.295704 89.5925675,223.701763 91.5556854,221.678574 C100.715483,212.248384 110.083941,203.026902 119.380007,193.728751 Z" id="Stroke-3"></path>
                    <path d="M192.335625,146.083065 C216.138266,169.978063 239.953668,193.864522 263.739295,217.78087 C270.719304,224.796503 270.740572,235.548399 263.879661,242.248051 C257.205904,248.764092 246.725255,248.571941 239.881358,241.714299 C218.924315,220.71437 198.0013,199.684551 177.061271,178.663272 C176.253104,177.851969 175.453445,177.027857 174.628264,176.229364 C171.017034,172.715142 166.282877,172.574232 162.527028,175.853603 C158.422391,179.436144 153.858375,179.367824 150.051484,175.554702 C137.695038,163.184471 125.270536,150.886831 113.071469,138.36288 C104.717576,129.788691 97.6312287,120.22813 92.8332696,109.130364 C90.5023462,103.733066 88.9583221,98.1350775 89.0008572,92.186948 C89.0476458,85.6282065 91.2637244,79.8850376 95.6363325,75.0343017 C102.675891,67.2372561 113.501074,66.9639752 120.919195,74.4023396 C144.73885,98.280258 168.532984,122.188067 192.335625,146.083065 Z" id="Stroke-5"></path>
                    <path d="M20.9230769,98 L42.0769231,98 C51.3846154,98 59,90.35 59,81 C59,71.65 51.3846154,64 42.0769231,64 L20.9230769,64 C11.6153846,64 4,71.65 4,81 C4,90.35 11.6153846,98 20.9230769,98 Z" id="Stroke-7"></path>
                    <path d="M16.9230769,162 L38.0769231,162 C47.3846154,162 55,154.35 55,145 C55,135.65 47.3846154,128 38.0769231,128 L16.9230769,128 C7.61538462,128 0,135.65 0,145 C0,154.35 7.61538462,162 16.9230769,162 Z" id="Stroke-9"></path>
                    <path d="M16.9230769,226 L38.0769231,226 C47.3846154,226 55,218.35 55,209 C55,199.65 47.3846154,192 38.0769231,192 L16.9230769,192 C7.61538462,192 0,199.65 0,209 C0,218.35 7.61538462,226 16.9230769,226 Z" id="Stroke-11"></path>
                </g>
            </g>
        </g>
    </g>
</svg>