<?xml version="1.0" encoding="UTF-8"?>
<svg width="550px" height="550px" viewBox="0 0 550 550" version="1.1" xmlns="http://www.w3.org/2000/svg" xmlns:xlink="http://www.w3.org/1999/xlink" style="background: #5F9A50;">
    <!-- Generator: Sketch 47 (45396) - http://www.bohemiancoding.com/sketch -->
    <title>Nav_Scan</title>
    <desc>Created with Sketch.</desc>
    <defs></defs>
    <g id="Icons-Copy" stroke="none" stroke-width="1" fill="none" fill-rule="evenodd">
        <g id="Nav_Scan" stroke="#FFFFFF" stroke-width="4">
            <g id="Page-1" transform="translate(22.000000, 80.000000)">
                <path d="M438.751128,58.5014658 L389.997745,58.5014658 L389.997745,39.0058633 C389.997745,17.5607006 372.451804,0 351.006765,0 L165.74098,0 C144.310599,0 126.75,17.5607006 126.75,39.0058633 L126.75,58.5014658 L68.2488724,58.5014658 C30.7237192,58.5014658 0,89.2107044 0,126.750733 L0,321.750733 C0,359.290761 30.7237192,390 68.2488724,390 L438.751128,390 C476.290939,390 507,359.290761 507,321.750733 L507,126.750733 C507,89.2107044 476.290939,58.5014658 438.751128,58.5014658 Z" id="Stroke-1"></path>
                <path d="M253.992659,293 C208.158044,293 171,255.845242 171,210 C171,164.169438 208.158044,127 253.992659,127 C299.841956,127 337,164.169438 337,210 C337,255.845242 299.841956,293 253.992659,293 Z" id="Stroke-3"></path>
                <path d="M144,156.507392 C144,172.798547 131.007767,186 114.992734,186 C98.9776998,186 86,172.798547 86,156.507392 C86,140.216237 98.9776998,127 114.992734,127 C131.007767,127 144,140.216237 144,156.507392 Z" id="Stroke-5"></path>
            </g>
        </g>
    </g>
</svg>