<?xml version="1.0" encoding="UTF-8"?>
<svg width="550px" height="550px" viewBox="0 0 550 550" version="1.1" xmlns="http://www.w3.org/2000/svg" xmlns:xlink="http://www.w3.org/1999/xlink" style="background: #5F9A50;">
    <!-- Generator: Sketch 47 (45396) - http://www.bohemiancoding.com/sketch -->
    <title>Nav_Recipes</title>
    <desc>Created with Sketch.</desc>
    <defs></defs>
    <g id="Icons-Copy" stroke="none" stroke-width="1" fill="none" fill-rule="evenodd">
        <g id="Nav_Recipes" stroke="#FFFFFF" stroke-width="4">
            <path d="M146.879533,352.415283 C166.751207,332.543608 186.704379,312.75343 206.426643,292.745927 C211.560951,287.557287 217.292904,284.799973 224.505385,285.805102 C234.257854,287.163385 241.945734,284.066501 248.370411,276.528032 C253.341725,270.701 259.18234,265.621023 264.56114,260.147144 C273.64805,250.897239 277.342579,239.759321 274.259278,227.195207 C266.924551,197.258658 275.08783,172.456417 297.064843,151.199294 C320.209979,128.78763 342.675974,105.66966 365.522288,82.9455916 C375.247591,73.2746192 390.215866,75.7738593 395.350174,87.7403292 C398.351979,94.721902 396.735622,102.246788 390.704848,108.291145 C370.996167,128.054158 351.246737,147.776422 331.510891,167.512268 C330.45143,168.571729 329.351221,169.604023 328.346092,170.704232 C324.502152,174.928491 324.366324,180.103548 327.95219,183.770911 C331.538056,187.438274 336.862524,187.46544 341.005286,183.675831 C343.490943,181.393917 345.800024,178.935425 348.177018,176.544848 C366.731159,158.00429 385.271717,139.450149 403.825858,120.923174 C409.191074,115.544375 415.575003,113.710693 422.855397,116.128436 C429.714725,118.396768 433.653744,123.395248 434.699622,130.458318 C435.664003,136.855829 433.259842,142.125966 428.723178,146.649047 C408.810755,166.466391 388.966246,186.365231 369.094571,206.236906 C368.03511,207.296366 366.907736,208.301496 365.943355,209.442453 C362.574814,213.449387 362.737808,218.665192 366.269343,222.101647 C369.800878,225.524519 374.935186,225.524519 378.928537,222.047316 C380.055912,221.069352 381.074624,219.955561 382.134084,218.8961 C401.747685,199.296082 421.334121,179.682481 440.947722,160.082462 C449.450571,151.606779 460.384747,150.954803 467.868884,158.425357 C475.366604,165.895912 474.741794,176.870835 466.279693,185.346519 C442.319588,209.33379 418.49531,233.45689 394.304297,257.226836 C375.38342,275.821725 352.523523,282.395813 326.688987,276.446535 C311.109485,272.860669 298.30088,276.13413 287.434619,287.828944 C281.947157,293.72389 276.188039,299.360763 270.347424,304.902556 C265.837925,309.181147 263.162109,314.233958 263.895581,320.373395 C265.308195,332.244786 260.52704,340.720469 252.092105,348.99241 C213.584793,386.76625 175.675124,425.1649 137.466634,463.251145 C125.364336,475.326278 107.109017,477.390868 93.0779575,468.616362 C78.9382353,459.760359 72.3641474,442.75466 78.028186,427.147993 C80.0656099,421.551869 83.6378932,416.037241 87.7942381,411.745068 C107.244845,391.737565 127.143686,372.151129 146.879533,352.415283 Z" id="Page-1-Copy"></path>
        </g>
    </g>
</svg>