<?xml version="1.0" encoding="UTF-8"?>
<svg width="550px" height="550px" viewBox="0 0 550 550" version="1.1" xmlns="http://www.w3.org/2000/svg" xmlns:xlink="http://www.w3.org/1999/xlink" style="background: #5F9A50;">
    <!-- Generator: Sketch 47 (45396) - http://www.bohemiancoding.com/sketch -->
    <title>Notification_dark-bg</title>
    <desc>Created with Sketch.</desc>
    <defs></defs>
    <g id="Icons-Copy" stroke="none" stroke-width="1" fill="none" fill-rule="evenodd">
        <g id="Notification_dark-bg" stroke="#FFFFFF" stroke-width="5">
            <g id="Page-1" transform="translate(26.000000, 26.000000)">
                <path d="M291,446.522979 C256.334384,481.276551 207.889218,482.093042 173.223601,447.339471 C138.557985,412.5859 138.111365,362.753571 172.776981,328" id="Stroke-1"></path>
                <path d="M371.944017,486.595934 C378.212073,476.328274 375.432098,462.8741 366.921704,454.376726 L364.613801,452.055684 C363.132022,447.636525 341.954386,373.009129 433.588641,267.355828 C496.570801,194.721643 483.142999,121.24821 467.302389,80.4529494 C474.5277,78.8137955 481.425184,75.2732232 487.050699,69.6476472 C502.9831,53.7150717 502.9831,27.882007 487.050699,11.9494316 C471.118298,-3.98314386 445.285515,-3.98314386 429.353114,11.9494316 C423.727599,17.5750076 420.187066,24.472567 418.534817,31.6979572 C377.753115,15.8571744 304.267372,2.42922601 231.633981,65.4120736 C125.994948,157.047331 51.3552537,135.85635 47.2770835,134.610593 C47.1809208,134.575624 46.297973,133.727635 44.6282398,132.066626 C36.117846,123.569252 22.6769313,120.789247 12.4093838,127.057372 C-2.26416109,136.000595 -3.92952321,155.644215 7.43952366,167.013386 L331.988439,491.565849 C343.344373,502.921907 362.987778,501.269639 371.944017,486.595934 Z" id="Stroke-3"></path>
            </g>
        </g>
    </g>
</svg>