<?xml version="1.0" encoding="UTF-8"?>
<svg width="550px" height="550px" viewBox="0 0 550 550" version="1.1" xmlns="http://www.w3.org/2000/svg" xmlns:xlink="http://www.w3.org/1999/xlink" style="background: #5F9A50;">
    <!-- Generator: Sketch 47 (45396) - http://www.bohemiancoding.com/sketch -->
    <title>settings_dark-bg</title>
    <desc>Created with Sketch.</desc>
    <defs></defs>
    <g id="Icons-Copy" stroke="none" stroke-width="1" fill="none" fill-rule="evenodd">
        <g id="settings_dark-bg" stroke="#FFFFFF" stroke-width="5">
            <path d="M278.506048,371.693539 C225.383166,371.693539 182.312509,328.622882 182.312509,275.5 C182.312509,222.377118 225.383166,179.306461 278.506048,179.306461 C331.62893,179.306461 374.699587,222.377118 374.699587,275.5 C374.699587,328.622882 331.62893,371.693539 278.506048,371.693539 Z M526,316.911319 L526,240.100778 L462.295829,218.866054 C459.193587,208.87395 455.345846,199.218523 450.752604,189.995968 L481.919311,127.65053 L427.59401,73.3372534 L365.789661,104.239428 C357.408799,99.9588153 348.691259,96.2313157 339.649066,93.2012192 L316.911319,25 L240.100778,25 L217.36303,93.2012192 C209.547305,95.8224932 202.032185,99.0449767 194.697427,102.604138 L127.65053,69.0806893 L73.3372534,123.40599 L106.463903,189.683339 C103.217371,196.188427 100.307517,202.909951 97.7944607,209.823861 L25,234.088681 L25,310.899222 L95.5459367,334.418543 C97.8064849,341.38055 100.367638,348.186243 103.361662,354.7755 L69.0806893,423.34947 L123.40599,477.662747 L188.420799,445.161355 C195.551145,448.948975 202.885902,452.399918 210.50924,455.297749 L234.088681,526 L310.899222,526 L333.023736,459.650506 C342.053905,456.957087 350.915735,453.854846 359.356718,449.922935 L423.34947,481.919311 L477.662747,427.59401 L447.433927,367.124346 C452.315749,358.13025 456.548265,348.715307 459.963135,338.927615 L526,316.911319 Z" id="Page-1"></path>
        </g>
    </g>
</svg>